<svg width="16" height="11" viewBox="0 0 16 11" fill="none" xmlns="http://www.w3.org/2000/svg">
<path d="M1 4.5C0.447715 4.5 0 4.94772 0 5.5C0 6.05228 0.447715 6.5 1 6.5V4.5ZM14 5.5L14.7142 6.19999L15.4003 5.5L14.7142 4.80001L14 5.5ZM10.3034 0.300014C9.91685 -0.094404 9.28372 -0.100748 8.8893 0.285844C8.49488 0.672436 8.48854 1.30557 8.87513 1.69999L10.3034 0.300014ZM8.87513 9.30001C8.48854 9.69443 8.49488 10.3276 8.8893 10.7142C9.28372 11.1007 9.91685 11.0944 10.3034 10.7L8.87513 9.30001ZM1 6.5H14V4.5H1V6.5ZM14.7142 4.80001L10.3034 0.300014L8.87513 1.69999L13.2858 6.19999L14.7142 4.80001ZM13.2858 4.80001L8.87513 9.30001L10.3034 10.7L14.7142 6.19999L13.2858 4.80001Z" fill="#C8235A"/>
</svg>
