<svg width="8" height="11" viewBox="0 0 8 11" fill="none" xmlns="http://www.w3.org/2000/svg">
<path d="M6 5.5L6.66896 6.24329L7.49485 5.5L6.66896 4.75671L6 5.5ZM1.66896 0.256706C1.25845 -0.112753 0.626165 -0.0794748 0.256706 0.331035C-0.112753 0.741545 -0.0794748 1.37384 0.331035 1.74329L1.66896 0.256706ZM0.331035 9.25671C-0.0794748 9.62617 -0.112753 10.2585 0.256706 10.669C0.626165 11.0795 1.25845 11.1128 1.66896 10.7433L0.331035 9.25671ZM6.66896 4.75671L1.66896 0.256706L0.331035 1.74329L5.33103 6.24329L6.66896 4.75671ZM5.33103 4.75671L0.331035 9.25671L1.66896 10.7433L6.66896 6.24329L5.33103 4.75671Z" fill="#C8235A"/>
</svg>
