<svg width="22" height="22" viewBox="0 0 22 22" fill="none" xmlns="http://www.w3.org/2000/svg">
<mask id="path-1-inside-1_34_118" fill="white">
<path d="M18 21C19.1046 21 20.0222 20.0938 19.7787 19.0164C19.4068 17.3705 18.5761 15.8482 17.364 14.636C15.6761 12.9482 13.3869 12 11 12C8.61305 12 6.32387 12.9482 4.63604 14.636C3.42391 15.8482 2.59324 17.3705 2.22129 19.0164C1.97781 20.0938 2.89543 21 4 21L11 21H18Z"/>
</mask>
<path d="M18 21C19.1046 21 20.0222 20.0938 19.7787 19.0164C19.4068 17.3705 18.5761 15.8482 17.364 14.636C15.6761 12.9482 13.3869 12 11 12C8.61305 12 6.32387 12.9482 4.63604 14.636C3.42391 15.8482 2.59324 17.3705 2.22129 19.0164C1.97781 20.0938 2.89543 21 4 21L11 21H18Z" stroke="#C81059" stroke-width="4" stroke-linejoin="round" mask="url(#path-1-inside-1_34_118)"/>
<circle cx="11" cy="6" r="4" stroke="#C81059" stroke-width="2"/>
</svg>
